<?xml version="1.0" standalone="no"?>
<!DOCTYPE svg PUBLIC "-//W3C//DTD SVG 20010904//EN"
 "http://www.w3.org/TR/2001/REC-SVG-20010904/DTD/svg10.dtd">
<svg version="1.0" xmlns="http://www.w3.org/2000/svg"
 width="500.000000pt" height="500.000000pt" viewBox="0 0 500.000000 500.000000"
 preserveAspectRatio="xMidYMid meet">

<g transform="translate(0.000000,500.000000) scale(0.100000,-0.100000)"
fill="#000000" stroke="none">
<path d="M2265 4884 c-383 -61 -751 -265 -974 -538 -200 -245 -304 -549 -288
-838 21 -369 196 -698 498 -939 103 -82 269 -180 379 -224 41 -16 77 -33 80
-36 3 -4 4 -28 2 -53 l-4 -46 -384 0 -384 0 -94 188 -95 187 0 -377 -1 -378
575 0 575 0 0 319 0 319 -72 40 c-299 165 -498 443 -575 803 -22 105 -25 380
-5 481 l14 66 31 -10 c53 -18 156 -134 226 -253 128 -219 204 -309 300 -353
48 -22 62 -24 145 -19 90 5 126 12 126 27 0 19 -91 140 -155 204 -84 86 -173
155 -274 214 l-76 44 45 -6 c24 -4 70 -17 102 -30 174 -71 319 -205 435 -404
l45 -77 -7 60 c-22 189 -123 394 -252 509 -56 49 -162 104 -235 121 -87 20
-268 19 -364 -1 -42 -8 -78 -13 -81 -10 -9 9 28 119 72 213 110 235 285 415
510 523 160 77 240 94 430 95 195 0 289 -20 440 -95 306 -152 515 -429 596
-787 30 -133 32 -387 5 -513 -78 -358 -280 -639 -578 -804 l-68 -38 0 -319 0
-319 575 0 575 0 -1 378 0 377 -95 -187 -94 -188 -385 0 -385 0 0 55 c0 33 4
55 11 55 19 0 191 82 276 132 218 128 417 334 527 548 102 197 139 344 139
550 -1 338 -117 620 -361 874 -213 221 -481 369 -807 443 -95 21 -140 25 -330
28 -159 3 -245 0 -310 -11z"/>
<path d="M2925 4075 c-33 -7 -79 -20 -101 -28 -187 -68 -304 -266 -304 -517 0
-107 12 -128 29 -52 22 100 94 234 167 312 57 60 149 129 159 118 2 -1 -19
-28 -47 -58 -74 -81 -133 -167 -172 -251 -56 -121 -57 -119 6 -119 34 0 71 8
103 24 88 40 130 107 191 301 50 160 66 196 109 244 l37 41 -58 -1 c-33 0 -86
-7 -119 -14z"/>
<path d="M3025 3522 c-95 -25 -137 -44 -209 -96 -104 -74 -182 -169 -250 -304
-33 -65 -81 -210 -90 -272 l-7 -45 25 42 c106 180 290 353 453 424 60 27 178
59 212 59 19 -1 6 -11 -54 -42 -175 -89 -369 -244 -461 -370 -42 -57 -42 -58
45 -84 79 -24 180 -15 251 21 77 39 178 145 300 315 140 195 240 290 307 290
38 0 -7 20 -102 45 -137 36 -320 43 -420 17z"/>
<path d="M1050 1416 c-82 -22 -144 -60 -215 -131 -106 -105 -144 -198 -145
-346 -1 -239 173 -439 418 -481 63 -11 85 -10 153 4 118 25 181 57 260 137 80
79 112 142 137 260 14 68 15 90 4 153 -42 247 -242 419 -486 417 -44 0 -101
-6 -126 -13z m230 -126 c61 -17 143 -73 182 -125 173 -227 30 -555 -254 -582
-129 -12 -259 51 -328 159 -49 75 -60 113 -60 205 0 106 28 173 104 249 77 76
139 103 246 103 41 1 91 -4 110 -9z"/>
<path d="M3290 1413 c-157 -55 -268 -218 -285 -420 -9 -108 8 -202 55 -300 72
-153 184 -230 346 -241 67 -4 88 -2 95 9 10 16 13 568 3 593 -5 13 -26 16
-130 16 l-124 0 0 -55 0 -54 63 -3 62 -3 3 -175 c1 -96 0 -180 -2 -187 -9 -21
-89 14 -134 59 -193 191 -116 606 119 646 l44 7 3 63 3 62 -38 0 c-21 -1 -58
-8 -83 -17z"/>
<path d="M3756 1103 c-54 -181 -118 -393 -142 -473 -24 -80 -44 -149 -44 -153
0 -4 30 -7 67 -5 74 3 65 -6 97 108 l16 55 106 -2 c75 -1 109 -5 115 -15 4 -7
15 -43 25 -80 l16 -68 70 0 c62 0 70 2 65 17 -3 10 -30 99 -60 198 -31 99 -94
306 -142 459 -47 154 -87 281 -89 283 -1 2 -47 -144 -100 -324z m143 -215 c18
-68 32 -127 32 -132 -1 -4 -34 -8 -73 -8 -40 0 -73 4 -72 9 3 28 69 253 74
253 3 0 20 -55 39 -122z"/>
<path d="M1760 945 l0 -475 65 0 65 0 0 280 c0 154 4 280 9 280 5 0 52 -56
105 -125 54 -69 100 -125 104 -125 4 0 52 59 107 131 l100 131 3 -286 2 -286
65 0 65 0 0 478 c-1 377 -3 474 -13 461 -212 -277 -323 -418 -329 -419 -4 0
-82 97 -174 215 -92 118 -168 215 -170 215 -2 0 -4 -214 -4 -475z"/>
<path d="M2550 940 l0 -470 175 0 175 0 0 65 0 65 -110 0 -110 0 0 201 0 201
78 -4 77 -3 3 52 c3 49 1 53 -23 59 -15 4 -51 4 -81 0 l-54 -6 0 95 0 95 110
0 110 0 0 60 0 60 -175 0 -175 0 0 -470z"/>
</g>
</svg>
